# xmcd
#
# Track frame offsets:
#	182
#	13030
#	26752
#	42302
#	55140
#	69560
#	83445
#	95752
#	108640
#	121275
#	132047
#	143425
#	157795
#	172285
#	185822
#	204895
#	224550
#
# Disc length: 3172 seconds
#
# Revision: 1
# Processed by: cddbd v1.5.2PL0 Copyright (c) Steve Scherf et al.
# Submitted via: audiograbber 1.83.01
#
DISCID=ee0c6211
DTITLE=Various Artist - The Best Of Chess Blues
DYEAR=1988
DGENRE=Blues
TTITLE0=Muddy Waters - Hoochie Coochie Man
TTITLE1=Robert Nighthawk - Black Angel Blues
TTITLE2=Eddie Boy And His Chess Man - 24 Hours
TTITLE3=Willie Mabon - Seventh Son
TTITLE4=Lowell Fulson - Reconsider Baby
TTITLE5=Howlin' Wolf - Smokestack Lightnin'
TTITLE6=Little Water And His Night Cats - Juke
TTITLE7=J.b. Lenoir - Eisenhower Blues
TTITLE8=Jimmy Rogers - Walking By Myself
TTITLE9=Elmore James - Madison Blues
TTITLE10=Sonny Boy Williamson - Your Funeral My Trial
TTITLE11=Otis Rush - So Many Roads So Many Trains
TTITLE12=Buddy Guy - My Time After Awhile
TTITLE13=John Lee Hooker - One Bourbon, One Scotch, One Beer
TTITLE14=Etta James - Baby What You Want Me To Do
TTITLE15=Little Milton - Stormy Monday
TTITLE16=Koko Taylor - Wang Dang Doodle
EXTD=
EXTT0=
EXTT1=
EXTT2=
EXTT3=
EXTT4=
EXTT5=
EXTT6=
EXTT7=
EXTT8=
EXTT9=
EXTT10=
EXTT11=
EXTT12=
EXTT13=
EXTT14=
EXTT15=
EXTT16=
PLAYORDER=
